<?xml version="1.0" encoding="UTF-8" standalone="no"?>
<!-- Created with Inkscape (http://www.inkscape.org/) -->

<svg
   xmlns:dc="http://purl.org/dc/elements/1.1/"
   xmlns:cc="http://creativecommons.org/ns#"
   xmlns:rdf="http://www.w3.org/1999/02/22-rdf-syntax-ns#"
   xmlns:svg="http://www.w3.org/2000/svg"
   xmlns="http://www.w3.org/2000/svg"
   xmlns:xlink="http://www.w3.org/1999/xlink"
   xmlns:sodipodi="http://sodipodi.sourceforge.net/DTD/sodipodi-0.dtd"
   xmlns:inkscape="http://www.inkscape.org/namespaces/inkscape"
   width="1052.3622"
   height="744.09448"
   id="svg2"
   version="1.1"
   inkscape:version="0.47 r22583"
   sodipodi:docname="tall-ship.svg">
  <sodipodi:namedview
     id="base"
     pagecolor="#ffffff"
     bordercolor="#666666"
     borderopacity="1.0"
     inkscape:pageopacity="0.0"
     inkscape:pageshadow="2"
     inkscape:zoom="0.5"
     inkscape:cx="402.5901"
     inkscape:cy="353.75034"
     inkscape:document-units="px"
     inkscape:current-layer="g3947"
     showgrid="false"
     inkscape:window-width="1024"
     inkscape:window-height="538"
     inkscape:window-x="-8"
     inkscape:window-y="-8"
     inkscape:window-maximized="1"
     showguides="true"
     inkscape:guide-bbox="true">
    <inkscape:grid
       snapvisiblegridlinesonly="true"
       enabled="true"
       visible="true"
       empspacing="5"
       id="grid2816"
       type="xygrid" />
  </sodipodi:namedview>
  <defs
     id="defs4">
    <inkscape:perspective
       id="perspective10"
       inkscape:persp3d-origin="372.04724 : 350.78739 : 1"
       inkscape:vp_z="744.09448 : 526.18109 : 1"
       inkscape:vp_y="0 : 1000 : 0"
       inkscape:vp_x="0 : 526.18109 : 1"
       sodipodi:type="inkscape:persp3d" />
    <inkscape:perspective
       sodipodi:type="inkscape:persp3d"
       inkscape:vp_x="0 : 0.5 : 1"
       inkscape:vp_y="0 : 1000 : 0"
       inkscape:vp_z="1 : 0.5 : 1"
       inkscape:persp3d-origin="0.5 : 0.33333333 : 1"
       id="perspective2830" />
    <inkscape:perspective
       sodipodi:type="inkscape:persp3d"
       inkscape:vp_x="0 : 0.5 : 1"
       inkscape:vp_y="0 : 1000 : 0"
       inkscape:vp_z="1 : 0.5 : 1"
       inkscape:persp3d-origin="0.5 : 0.33333333 : 1"
       id="perspective2852" />
    <inkscape:perspective
       sodipodi:type="inkscape:persp3d"
       inkscape:vp_x="0 : 0.5 : 1"
       inkscape:vp_y="0 : 1000 : 0"
       inkscape:vp_z="1 : 0.5 : 1"
       inkscape:persp3d-origin="0.5 : 0.33333333 : 1"
       id="perspective3691" />
    <inkscape:perspective
       sodipodi:type="inkscape:persp3d"
       inkscape:vp_x="0 : 0.5 : 1"
       inkscape:vp_y="0 : 1000 : 0"
       inkscape:vp_z="1 : 0.5 : 1"
       inkscape:persp3d-origin="0.5 : 0.33333333 : 1"
       id="perspective3705" />
    <inkscape:perspective
       sodipodi:type="inkscape:persp3d"
       inkscape:vp_x="0 : 0.5 : 1"
       inkscape:vp_y="0 : 1000 : 0"
       inkscape:vp_z="1 : 0.5 : 1"
       inkscape:persp3d-origin="0.5 : 0.33333333 : 1"
       id="perspective3719" />
    <inkscape:perspective
       sodipodi:type="inkscape:persp3d"
       inkscape:vp_x="0 : 0.5 : 1"
       inkscape:vp_y="0 : 1000 : 0"
       inkscape:vp_z="1 : 0.5 : 1"
       inkscape:persp3d-origin="0.5 : 0.33333333 : 1"
       id="perspective3733" />
    <inkscape:perspective
       sodipodi:type="inkscape:persp3d"
       inkscape:vp_x="0 : 0.5 : 1"
       inkscape:vp_y="0 : 1000 : 0"
       inkscape:vp_z="1 : 0.5 : 1"
       inkscape:persp3d-origin="0.5 : 0.33333333 : 1"
       id="perspective3747" />
    <inkscape:perspective
       sodipodi:type="inkscape:persp3d"
       inkscape:vp_x="0 : 0.5 : 1"
       inkscape:vp_y="0 : 1000 : 0"
       inkscape:vp_z="1 : 0.5 : 1"
       inkscape:persp3d-origin="0.5 : 0.33333333 : 1"
       id="perspective3833" />
    <inkscape:perspective
       sodipodi:type="inkscape:persp3d"
       inkscape:vp_x="0 : 0.5 : 1"
       inkscape:vp_y="0 : 1000 : 0"
       inkscape:vp_z="1 : 0.5 : 1"
       inkscape:persp3d-origin="0.5 : 0.33333333 : 1"
       id="perspective3872" />
    <inkscape:perspective
       sodipodi:type="inkscape:persp3d"
       inkscape:vp_x="0 : 0.5 : 1"
       inkscape:vp_y="0 : 1000 : 0"
       inkscape:vp_z="1 : 0.5 : 1"
       inkscape:persp3d-origin="0.5 : 0.33333333 : 1"
       id="perspective3888" />
    <inkscape:perspective
       sodipodi:type="inkscape:persp3d"
       inkscape:vp_x="0 : 0.5 : 1"
       inkscape:vp_y="0 : 1000 : 0"
       inkscape:vp_z="1 : 0.5 : 1"
       inkscape:persp3d-origin="0.5 : 0.33333333 : 1"
       id="perspective2841" />
    <inkscape:perspective
       sodipodi:type="inkscape:persp3d"
       inkscape:vp_x="0 : 176.8215 : 1"
       inkscape:vp_y="0 : 1000 : 0"
       inkscape:vp_z="219.744 : 176.8215 : 1"
       inkscape:persp3d-origin="109.872 : 117.881 : 1"
       id="perspective4690" />
    <inkscape:perspective
       sodipodi:type="inkscape:persp3d"
       inkscape:vp_x="0 : 0.5 : 1"
       inkscape:vp_y="0 : 1000 : 0"
       inkscape:vp_z="1 : 0.5 : 1"
       inkscape:persp3d-origin="0.5 : 0.33333333 : 1"
       id="perspective5225" />
    <inkscape:perspective
       sodipodi:type="inkscape:persp3d"
       inkscape:vp_x="0 : 0.5 : 1"
       inkscape:vp_y="0 : 1000 : 0"
       inkscape:vp_z="1 : 0.5 : 1"
       inkscape:persp3d-origin="0.5 : 0.33333333 : 1"
       id="perspective3726" />
    <inkscape:perspective
       sodipodi:type="inkscape:persp3d"
       inkscape:vp_x="0 : 166.2735 : 1"
       inkscape:vp_y="0 : 1000 : 0"
       inkscape:vp_z="363.17499 : 166.2735 : 1"
       inkscape:persp3d-origin="181.58749 : 110.849 : 1"
       id="perspective5069" />
    <inkscape:perspective
       sodipodi:type="inkscape:persp3d"
       inkscape:vp_x="0 : 526.18109 : 1"
       inkscape:vp_y="0 : 1000 : 0"
       inkscape:vp_z="744.09448 : 526.18109 : 1"
       inkscape:persp3d-origin="372.04724 : 350.78739 : 1"
       id="perspective5098" />
    <inkscape:perspective
       sodipodi:type="inkscape:persp3d"
       inkscape:vp_x="0 : 0.5 : 1"
       inkscape:vp_y="0 : 1000 : 0"
       inkscape:vp_z="1 : 0.5 : 1"
       inkscape:persp3d-origin="0.5 : 0.33333333 : 1"
       id="perspective5197" />
    <inkscape:perspective
       sodipodi:type="inkscape:persp3d"
       inkscape:vp_x="0 : 0.5 : 1"
       inkscape:vp_y="0 : 1000 : 0"
       inkscape:vp_z="1 : 0.5 : 1"
       inkscape:persp3d-origin="0.5 : 0.33333333 : 1"
       id="perspective5213" />
    <inkscape:perspective
       sodipodi:type="inkscape:persp3d"
       inkscape:vp_x="0 : 0.5 : 1"
       inkscape:vp_y="0 : 1000 : 0"
       inkscape:vp_z="1 : 0.5 : 1"
       inkscape:persp3d-origin="0.5 : 0.33333333 : 1"
       id="perspective5229" />
    <inkscape:perspective
       sodipodi:type="inkscape:persp3d"
       inkscape:vp_x="0 : 0.5 : 1"
       inkscape:vp_y="0 : 1000 : 0"
       inkscape:vp_z="1 : 0.5 : 1"
       inkscape:persp3d-origin="0.5 : 0.33333333 : 1"
       id="perspective5243" />
    <inkscape:perspective
       sodipodi:type="inkscape:persp3d"
       inkscape:vp_x="0 : 0.5 : 1"
       inkscape:vp_y="0 : 1000 : 0"
       inkscape:vp_z="1 : 0.5 : 1"
       inkscape:persp3d-origin="0.5 : 0.33333333 : 1"
       id="perspective5257" />
    <inkscape:perspective
       sodipodi:type="inkscape:persp3d"
       inkscape:vp_x="0 : 0.5 : 1"
       inkscape:vp_y="0 : 1000 : 0"
       inkscape:vp_z="1 : 0.5 : 1"
       inkscape:persp3d-origin="0.5 : 0.33333333 : 1"
       id="perspective2918" />
    <inkscape:perspective
       sodipodi:type="inkscape:persp3d"
       inkscape:vp_x="0 : 0.5 : 1"
       inkscape:vp_y="0 : 1000 : 0"
       inkscape:vp_z="1 : 0.5 : 1"
       inkscape:persp3d-origin="0.5 : 0.33333333 : 1"
       id="perspective3992" />
    <inkscape:perspective
       sodipodi:type="inkscape:persp3d"
       inkscape:vp_x="0 : 0.5 : 1"
       inkscape:vp_y="0 : 1000 : 0"
       inkscape:vp_z="1 : 0.5 : 1"
       inkscape:persp3d-origin="0.5 : 0.33333333 : 1"
       id="perspective4022" />
    <inkscape:perspective
       sodipodi:type="inkscape:persp3d"
       inkscape:vp_x="0 : 0.5 : 1"
       inkscape:vp_y="0 : 1000 : 0"
       inkscape:vp_z="1 : 0.5 : 1"
       inkscape:persp3d-origin="0.5 : 0.33333333 : 1"
       id="perspective2926" />
    <inkscape:perspective
       sodipodi:type="inkscape:persp3d"
       inkscape:vp_x="0 : 0.5 : 1"
       inkscape:vp_y="0 : 1000 : 0"
       inkscape:vp_z="1 : 0.5 : 1"
       inkscape:persp3d-origin="0.5 : 0.33333333 : 1"
       id="perspective2940" />
    <inkscape:perspective
       sodipodi:type="inkscape:persp3d"
       inkscape:vp_x="0 : 0.5 : 1"
       inkscape:vp_y="0 : 1000 : 0"
       inkscape:vp_z="1 : 0.5 : 1"
       inkscape:persp3d-origin="0.5 : 0.33333333 : 1"
       id="perspective2963" />
  </defs>
  <metadata
     id="metadata7">
    <rdf:RDF>
      <cc:Work
         rdf:about="">
        <dc:format>image/svg+xml</dc:format>
        <dc:type
           rdf:resource="http://purl.org/dc/dcmitype/StillImage" />
        <dc:title></dc:title>
      </cc:Work>
    </rdf:RDF>
  </metadata>
  <g
     transform="translate(0,-308.2677)"
     id="layer1"
     inkscape:groupmode="layer"
     inkscape:label="Layer 1">
    <g
       transform="translate(-1657.4583,1456.64)"
       id="g3672" />
    <g
       id="g3947"
       style="fill:#ffffff;fill-opacity:1;stroke:none"
       transform="translate(299.81328,158.39192)">
      <path
         style="fill:#000000;fill-opacity:1;stroke:none"
         d="M 494.5625 163.6875 L 489.84375 172.375 L 492.6875 176.03125 L 491.28125 199.40625 L 476.5625 207.3125 L 476.78125 208.09375 L 454.375 224.5625 L 409.5 198.5625 L 409.34375 193.625 L 406.1875 193.625 L 406.375 201.03125 L 405.875 201.84375 L 406.375 202.125 L 407.09375 232.6875 L 406.5625 232.34375 L 390.71875 255.375 L 386.78125 254.84375 L 386.28125 256.78125 L 394.25 258.09375 L 394.4375 258.21875 L 394.5 258.15625 L 400.375 259.125 C 398.53683 267.27473 396.84375 274.59375 396.84375 274.59375 L 398.15625 274.875 L 398.15625 277.34375 L 401.5625 277.15625 L 351.15625 320.46875 L 349.5 319.125 C 349.5 319.125 348.8125 333.05404 348.8125 332.40625 C 348.8125 331.75847 343.125 320.09375 343.125 320.09375 C 343.125 320.09375 336.81222 331.46904 331.09375 332.09375 C 313.14601 334.05452 304.76834 332.70928 299.5 342.625 C 319.72101 332.84834 327.19989 344.22772 332.59375 343.90625 C 337.82939 343.59422 347.8125 340.03125 347.8125 340.03125 C 338.36668 373.81643 329.51281 377.98007 320.46875 391.53125 L 304.03125 397.53125 L 304.71875 397.8125 L 301.6875 397.4375 L 301.34375 399.375 L 337.15625 403.75 C 337.25444 405.36069 337.35782 407.00436 337.4375 408.625 C 337.58723 411.67034 337.69817 414.43013 337.78125 416.71875 L 333.4375 416.71875 L 332.40625 414.75 L 327.375 413.78125 L 327.6875 407.5625 L 326 408.53125 L 326 406.25 L 324 406.59375 L 324 408.53125 L 322.96875 408.53125 L 322.96875 411.8125 L 320.59375 410.8125 L 320.28125 415.40625 L 317.0625 415.75 L 317.0625 414.09375 L 318.78125 411.15625 L 314.1875 404.9375 L 311.8125 406.59375 L 311.5 403.65625 L 310.125 402.625 L 310.125 404.9375 L 307.4375 407.21875 L 312.5 413.46875 L 313.1875 419.875 L 320.9375 421.15625 L 332.28125 448.78125 L 345.65625 456.1875 L 335.125 459.875 C 342.69713 474.85229 343.46695 488.0427 340.875 494.40625 L 664.78125 488.5625 C 664.78125 488.5625 668.36673 475.07779 672.375 464.6875 C 692.97836 455.30188 714.39571 448.03433 737.78125 410.65625 L 737.875 412.34375 L 740.40625 412.875 L 740.28125 408.09375 L 780.5 369.15625 L 779.71875 368.40625 L 780.9375 367.09375 L 788.03125 363.65625 L 782.28125 365.65625 L 782.625 365.28125 L 630.1875 231.71875 L 625.34375 219.34375 L 630.78125 220.71875 L 630.78125 218.1875 L 610.4375 210.625 L 608.09375 183.375 L 605.46875 183.59375 L 606.65625 209.9375 L 589.15625 206.03125 L 588.6875 208.34375 C 588.6875 208.34375 596.96875 209.92763 596.96875 210.84375 C 596.96875 211.57225 596.33749 221.40809 596.03125 226.125 C 592.42222 227.74785 588.91088 229.38451 585.4375 231 L 517.125 192.5625 L 519.15625 192.0625 L 519.15625 188.40625 L 496 197.5625 L 496.46875 176.5 L 499.3125 171.90625 L 494.5625 163.6875 z M 515.78125 197.125 L 580.25 233.375 C 575.44838 235.59389 570.5749 237.82023 565.3125 240.03125 L 526.125 221.03125 L 525.90625 218.40625 L 523.125 219.59375 L 521.65625 218.875 L 520.78125 220.5625 L 518.28125 221.625 L 515.78125 197.125 z M 409.625 204.03125 L 450.3125 227.53125 L 422.6875 247.84375 L 410.40625 230.875 L 409.625 204.03125 z M 481.5625 210.3125 L 478.96875 231.46875 L 491.75 226.4375 L 491.28125 232.375 L 476.15625 237.15625 L 458.75 227.09375 L 481.5625 210.3125 z M 506.4375 221.6875 C 508.92696 221.73192 511.25232 222.66315 513.5 223.625 L 497.46875 230.375 L 496.8125 223.25 L 504.5 221.84375 C 505.15768 221.72375 505.80327 221.67618 506.4375 221.6875 z M 523.0625 224.71875 L 559.53125 242.375 C 549.92669 246.18659 538.88381 249.99891 524.90625 253.8125 C 522.56718 245.88009 521.13831 236.56792 523.0625 224.71875 z M 602.59375 228.4375 C 604.25892 228.44705 606.20241 228.72366 608.5625 229.40625 L 608.5625 240.40625 L 595.65625 236.75 L 590.375 233.78125 C 594.16195 232.02602 597.97986 230.27704 601.96875 228.53125 L 601.9375 228.46875 C 602.16035 228.4603 602.3608 228.43616 602.59375 228.4375 z M 613.28125 229.625 C 617.92015 229.81197 621.84342 231.12524 625.3125 233.125 L 625 233.46875 L 776.65625 366.34375 L 774.65625 368.28125 L 766.625 371.0625 C 729.2169 341.40348 692.84945 315.31571 654.34375 281.9375 L 657.28125 282.09375 L 656.5625 279.78125 L 649.25 278.75 L 639.3125 267.1875 L 631.03125 248.875 L 639.53125 250.46875 L 639.53125 247.96875 L 613.53125 241.53125 L 613.28125 229.625 z M 454.6875 230.09375 L 471.8125 239.96875 L 471.375 242.6875 L 475.15625 241.90625 L 475.9375 242.375 L 467.71875 285.75 L 460.6875 288.03125 L 460.4375 289.78125 C 444.13687 290.28694 435.57101 287.9186 429.84375 284.71875 C 424.44217 281.70094 421.31119 277.66247 416.53125 274 L 416.53125 273.9375 L 416.15625 273.75 C 415.62694 273.35349 415.10718 272.94725 414.53125 272.5625 L 414.375 272.78125 L 410.1875 270.53125 L 410.34375 260.8125 L 411.28125 262 L 412.6875 260.96875 L 427.96875 263.09375 L 428.625 264.03125 L 429.71875 263.3125 L 435.09375 264.0625 L 435.28125 261.96875 L 432.46875 261.5625 L 432.5625 261.5 L 425.40625 251.625 L 454.6875 230.09375 z M 585.1875 236.15625 L 598.34375 243.5625 L 596.375 255.0625 L 570.8125 242.6875 C 575.8288 240.51644 580.52995 238.31886 585.1875 236.15625 z M 410.59375 237.59375 L 419.28125 250.34375 L 411.125 256.34375 L 410.59375 237.59375 z M 565.09375 245.0625 L 595.5625 259.8125 L 595 263.0625 L 583.78125 272.75 L 574.03125 272.6875 L 574.03125 275.4375 L 580.53125 275.5625 L 562.5 291.15625 L 530.34375 273.875 C 530.50827 272.66948 530.67625 271.45782 530.90625 270.21875 L 535.25 268.28125 L 534.59375 264.375 L 529.28125 266.25 C 528.32169 263.66464 527.29914 261.01246 526.3125 258.15625 C 542.26304 253.79851 554.50315 249.42063 565.09375 245.0625 z M 403.46875 245.09375 C 402.77106 248.33287 401.999 251.87247 401.1875 255.5 C 401.08949 255.93813 401.00407 256.2515 400.90625 256.6875 L 395.9375 256.0625 L 403.46875 245.09375 z M 407.46875 248.75 L 407.6875 257.59375 L 405.625 257.3125 C 405.72069 256.88587 405.7166 256.89744 405.8125 256.46875 C 406.42444 253.73332 406.90733 251.33732 407.46875 248.75 z M 421.90625 254.1875 L 426.3125 260.65625 L 415.34375 259.03125 L 421.90625 254.1875 z M 405.03125 259.875 L 406.84375 260.1875 L 406.84375 270.21875 L 402.375 271.5625 C 402.87491 269.38871 403.74486 265.5717 405.03125 259.875 z M 619.15625 261.125 C 623.09828 261.39863 626.67761 262.13976 629.875 263.375 L 642.28125 277.78125 L 627.8125 275.75 L 619.15625 261.125 z M 507.625 261.6875 C 514.23444 261.68538 520.65856 265.10117 526.84375 267.09375 L 521.28125 269.03125 L 507.625 261.6875 z M 609.5 261.6875 L 609.96875 272.9375 L 590.875 272.8125 L 602.40625 262.8125 L 609.5 261.6875 z M 614.625 262.59375 L 621.90625 274.9375 L 615.65625 274.0625 L 614.625 262.59375 z M 501.15625 263.5 L 515.34375 271.125 L 512.15625 272.25 L 500.875 263.75 L 501.15625 263.5 z M 498.46875 267.71875 L 506.90625 274.09375 L 498.46875 277.03125 L 498.46875 267.71875 z M 490.125 269.90625 L 490.4375 278.3125 L 471.34375 284.5625 C 477.54364 277.70267 484.25904 270.84197 490.125 269.90625 z M 403.875 277.03125 L 404 277.03125 L 403.9375 277.09375 L 403.875 277.03125 z M 413.0625 277.21875 C 417.5472 280.58112 420.94997 285.04541 427.46875 288.6875 C 434.08973 292.3867 449.22231 295.48262 466.75 295.0625 L 454.71875 362.71875 L 439.3125 332.875 C 442.9381 331.67661 446.41497 330.39373 449.75 329.8125 L 449.5 328.5625 L 450.65625 328.6875 L 450.65625 326.75 L 449.3125 326.59375 L 449.875 326.1875 L 413.0625 277.21875 z M 584.1875 278.59375 C 584.12733 286.65518 584.21264 294.66961 584.09375 302.75 L 566.90625 293.53125 L 584.1875 278.59375 z M 529.8125 278.875 L 558.75 294.40625 L 550.75 301.3125 L 529.6875 285.4375 C 529.63519 283.29981 529.66004 281.11897 529.8125 278.875 z M 649.9375 281.75 L 653.09375 281.875 C 672.05676 312.90903 694.91051 328.96208 699.09375 369.90625 L 655.375 319.90625 L 647.75 283.53125 L 649.9375 281.75 z M 404.15625 284.40625 L 404.375 297.1875 L 400 320.625 L 377.71875 317.875 L 404.15625 284.40625 z M 410.9375 288.09375 L 429.59375 324.25 L 410.5625 322 C 410.27934 321.66362 410.00636 321.32898 409.71875 320.96875 L 409.5 320.6875 L 408.90625 298.84375 L 410.9375 288.09375 z M 393.78125 289.96875 L 372.28125 317.1875 L 371.5 317.09375 C 370.89731 316.70016 370.30383 316.32643 369.6875 315.9375 L 369.09375 316.8125 L 366.875 316.53125 L 366.21875 318.8125 L 367.59375 319.03125 L 367.09375 319.75 C 372.30483 323.03832 377.51694 327.23467 384.25 329.125 C 388.39739 330.28943 393.10885 330.36137 398.4375 328.875 L 394.6875 348.9375 L 392.8125 348.9375 L 394.21875 351.4375 L 394.15625 351.78125 L 394.4375 351.84375 L 395.46875 353.625 L 399.15625 353.78125 L 401.84375 357.03125 L 401.84375 361.875 L 354.8125 323.46875 L 393.78125 289.96875 z M 530.09375 291.53125 L 542.75 301.0625 C 542.08542 310.46236 541.26045 318.51989 540.3125 325.3125 C 535.8399 314.70815 531.45979 303.93043 530.09375 291.53125 z M 467.375 291.59375 L 467.25 292.3125 L 466.53125 291.75 L 467.375 291.59375 z M 418.09375 291.71875 L 443.84375 325.9375 L 435.21875 324.90625 L 418.09375 291.71875 z M 563.15625 296.75 L 584 307.9375 C 583.82487 313.90566 583.46994 319.92855 582.78125 326.0625 L 554.03125 304.65625 L 563.15625 296.75 z M 376.5 320.34375 L 399.40625 323.75 L 399.375 323.9375 C 393.87516 325.95104 389.53223 325.85581 385.59375 324.75 C 382.43049 323.8619 379.48006 322.22302 376.5 320.34375 z M 404.84375 320.59375 L 404.84375 321.21875 L 404.71875 321.21875 L 404.84375 320.59375 z M 413 324.65625 L 430.78125 326.5625 L 432.5625 330.03125 C 431.3446 330.33882 430.15495 330.57938 428.96875 330.71875 C 423.78312 331.32801 418.80252 330.43757 413 324.65625 z M 406.46875 325.625 L 406.1875 331.4375 L 402.75 331.5625 L 403.59375 327.03125 C 404.53346 326.61801 405.49345 326.13402 406.46875 325.625 z M 436.375 327.15625 L 440.375 327.59375 C 439.28206 327.95592 438.21886 328.3053 437.15625 328.65625 L 436.375 327.15625 z M 642.59375 327.21875 L 649.65625 350.21875 L 619.875 350.53125 L 619.875 343.75 L 625.5625 343.75 L 625.90625 337.59375 L 621.875 337.28125 L 621.21875 327.53125 L 642.59375 327.21875 z M 409.6875 327.78125 C 416.44812 334.32547 423.2674 336.01725 429.53125 335.28125 C 431.32052 335.07102 433.04961 334.697 434.75 334.25 L 451.5625 366.84375 L 449.40625 367.40625 L 449.21875 367.15625 L 448.53125 367.65625 L 448.3125 367.71875 L 448.28125 367.84375 L 439.25 374.4375 L 410.9375 353.5 L 413.71875 353.09375 L 413.9375 348.5 L 411.5625 348.5 L 410.875 331.3125 L 409.6875 331.5625 L 409.6875 327.78125 z M 604.3125 333.625 L 603.34375 342.78125 L 612.5625 343 L 612.5625 350.78125 L 582.5 350.96875 C 591.59611 338.13436 597.40632 337.33135 604.3125 333.625 z M 569.5625 334.9375 C 573.92245 334.90409 578.44854 335.03639 583.03125 335.21875 L 580.84375 350.96875 L 569.0625 351.03125 L 568.84375 355.15625 L 584.6875 355.375 C 593.41457 372.66118 592.26285 396.13878 592.34375 411.25 C 598.59722 407.22887 610.50117 405.12816 616.125 404.15625 L 616.71875 414.8125 L 613.65625 415.25 L 613.65625 419.15625 L 611.03125 419.15625 L 610.8125 416.625 L 607.9375 416.625 L 607.9375 410.375 L 604.84375 410.125 L 605.0625 416.15625 L 602.90625 416.625 L 602.6875 412.6875 L 599.8125 413.15625 L 596 423.34375 L 594.3125 423.34375 L 593.84375 416.625 L 591.21875 416.625 L 588.34375 421.03125 L 576.875 421.03125 L 576.875 418.6875 L 578.78125 418.9375 L 579.03125 415.9375 L 577.09375 416.15625 L 577.59375 413.59375 L 574.96875 413.375 L 575.21875 420.78125 L 568.03125 421.03125 L 567.78125 416.15625 L 565.15625 416.375 L 565.625 418.6875 L 562.78125 418.25 L 562.53125 420.0625 L 541.03125 419.625 C 541.03125 419.625 533.64299 412.45016 532.6875 412.21875 C 531.73161 411.98743 531.71875 415.46875 531.71875 415.46875 L 536.03125 418.46875 L 527.40625 417.78125 C 527.40625 417.78125 527.1875 418.91829 527.1875 419.84375 C 527.1875 420.76903 531.03125 423.09375 531.03125 423.09375 L 531.03125 424.25 L 527.90625 424.25 L 527.90625 425.84375 L 523.84375 426.125 L 524.0625 432.34375 L 505.9375 432.125 L 505.9375 425.84375 L 504 426.125 L 504 421.25 L 501.125 421.03125 L 500.90625 418.9375 L 500.15625 419 L 500.15625 408.53125 C 543.69454 398.72904 545.96693 408.33931 560.6875 412.09375 L 553 350.21875 L 558.34375 349.90625 L 557 344.0625 L 548.25 345.9375 C 547.42809 343.23845 546.46981 340.5699 545.46875 337.9375 C 552.28206 335.76605 560.57832 335.00636 569.5625 334.9375 z M 402.09375 335 L 402.5 348.9375 L 399.5 348.9375 L 402.09375 335 z M 516.28125 343.625 C 525.65334 343.49362 533.04028 345.74635 540.25 347.65625 L 502.5 355.71875 L 501.5 345.6875 C 506.99241 344.29021 511.85395 343.68706 516.28125 343.625 z M 487.78125 348.9375 L 487.78125 357.03125 L 458.0625 365.09375 C 466.07446 359.34602 471.89406 353.15975 487.78125 348.9375 z M 408.21875 357.25 L 435.34375 377.3125 L 408.25 397.125 C 407.893 383.83857 407.5625 365.6875 407.5625 365.6875 L 409.6875 364.75 L 409.6875 360.40625 L 407.5625 360.1875 L 408.21875 357.25 z M 453.1875 370.3125 L 447.5 380.53125 L 443.1875 377.34375 L 452.0625 370.84375 L 451.8125 370.53125 L 453.1875 370.3125 z M 755.0625 371.71875 C 757.92326 371.70092 760.89676 371.79862 763.96875 372 L 738.59375 381.90625 L 738.125 380.78125 L 715.90625 389.46875 L 710.25 381.46875 C 723.07954 376.01826 737.08851 371.83078 755.0625 371.71875 z M 770.90625 371.90625 L 740.125 401.71875 L 739.65625 384.59375 L 765.09375 374.71875 L 770.90625 371.90625 z M 664.84375 373.9375 C 690.4949 373.98362 705.41462 384.04621 714.125 390.15625 L 692.28125 398.6875 L 665.34375 383.25 L 664.84375 373.9375 z M 456.9375 376.75 C 456.82616 377.64404 456.75443 378.59304 456.6875 379.6875 C 456.58034 381.43986 456.68254 384.26431 456.9375 387.53125 L 454 385.34375 C 454.70416 383.31423 455.45184 381.18995 456.0625 379.40625 C 456.42029 378.36115 456.62157 377.68715 456.9375 376.75 z M 439.25 380.1875 L 445.25 384.625 L 424.78125 421.375 L 421.59375 421.25 L 421.59375 418.9375 L 418.5 418.9375 L 418.03125 420.78125 L 416.59375 421.25 L 416.125 418.25 L 412.75 418.46875 L 412.75 421.25 L 410.40625 421.25 L 410.15625 415 L 412.53125 415.46875 L 412.53125 411.28125 L 409.875 411.5 L 410.15625 408.0625 L 408.625 408.25 C 408.55413 406.87778 408.44948 405.07648 408.375 402.75 L 439.25 380.1875 z M 736.71875 388.0625 L 737.5 404.25 L 734.5625 407.09375 L 734.375 407.3125 L 734.21875 407.5625 C 712.86391 442.04899 694.36176 449.89099 675.03125 458.46875 C 675.44009 457.6386 675.84949 456.86291 676.25 456.1875 C 681.49 447.35087 694.40625 435.8125 694.40625 435.8125 L 695.84375 432.53125 L 695.875 432.53125 C 696.16653 431.86065 697.5787 430.53209 699.84375 428.90625 C 702.10879 427.28032 705.0715 425.25357 708.0625 422.46875 C 713.85735 417.07326 719.62629 408.64997 721.0625 394.53125 L 736.71875 388.0625 z M 665.625 388.71875 L 686.75 400.84375 L 684.84375 401.59375 L 684.625 404.8125 L 666.84375 411.6875 L 665.625 388.71875 z M 452.40625 389.90625 L 457.25 393.5 L 457.46875 393.21875 C 458.56412 403.95687 460.34375 416.3125 460.34375 416.3125 C 465.77239 413.31239 476.94071 410.98811 489.4375 408.84375 L 489.21875 419.84375 L 489.1875 419.84375 L 487.53125 423.09375 L 482.75 423.34375 L 482.53125 420.78125 L 480.625 418 L 478.21875 418.25 L 480.625 422.84375 L 469.15625 422.625 L 468.65625 421.03125 L 467.25 421.25 L 467.25 418.25 L 462.21875 418.25 L 462.21875 420.5625 L 459.09375 422.84375 L 441 422.0625 C 442.88523 416.82678 445.61481 409.19759 448.96875 399.71875 C 450.13977 396.4092 451.28782 393.10562 452.40625 389.90625 z M 446.9375 391.25 C 446.08099 393.68798 445.37682 395.74065 444.5 398.21875 C 440.75972 408.7895 437.7729 417.13867 436.0625 421.875 L 430.0625 421.59375 L 446.9375 391.25 z M 323.4375 394.875 C 327.79787 395.40345 332.18863 395.83929 336.5625 396.25 C 336.65097 397.05476 336.73615 397.79443 336.8125 398.71875 C 336.89042 399.66217 336.96137 400.72254 337.03125 401.75 L 311.40625 398.625 L 323.4375 394.875 z M 716.0625 396.625 C 714.37254 408.13552 709.62657 414.67615 704.78125 419.1875 C 703.17501 420.68305 701.57603 421.89329 700.03125 423.03125 L 700.125 422.84375 L 703 410.8125 C 703.43618 406.2089 701.32332 407.77087 700.125 407.125 L 694.40625 412.6875 L 685.78125 416.375 L 685.96875 409.09375 L 716.0625 396.625 z M 341.375 396.6875 C 344.51433 396.96896 347.64213 397.24796 350.78125 397.53125 L 350.90625 403.4375 L 341.8125 402.34375 C 341.71985 400.96655 341.63488 399.59838 341.53125 398.34375 C 341.48023 397.72613 341.42792 397.25465 341.375 396.6875 z M 355.46875 398 C 370.14656 399.39342 384.78922 401.17878 399.15625 405.28125 L 399.21875 407.3125 L 397.9375 406.90625 L 392.5625 406.90625 L 392.5625 408.53125 L 355.625 404.03125 L 355.46875 398 z M 633.3125 402.78125 C 648.25118 402.83469 658.01158 406.59725 665.21875 412.3125 L 649.25 418.46875 L 649.71875 411.28125 L 646.15625 411.78125 L 646.40625 418.6875 L 641.375 421.46875 L 641.59375 415.6875 L 634.9375 415.6875 L 634.6875 417.3125 L 637.3125 419.625 C 637.3125 419.625 637.33263 421.23689 637.09375 422.625 C 636.85488 424.01319 634.21875 423.5625 634.21875 423.5625 L 631.59375 417.0625 L 627.78125 417.0625 L 627.5 418.46875 L 623.46875 419.84375 L 623.21875 413.84375 L 621.28125 414.125 L 621.09375 403.46875 C 625.516 402.9932 629.57783 402.76789 633.3125 402.78125 z M 341.9375 404.3125 L 350.96875 405.4375 L 351.125 412.78125 L 350.34375 412.46875 L 348.65625 409.84375 L 345.28125 413.46875 L 345.59375 416.71875 L 342.53125 416.71875 C 342.44816 414.3965 342.31024 411.56947 342.15625 408.4375 C 342.08949 407.07959 342.02115 405.68126 341.9375 404.3125 z M 355.65625 406 L 392.5625 410.5 C 392.5625 410.5 393.21875 420.00373 393.21875 421.3125 C 393.21875 422.62118 388.5 420 388.5 420 L 388.15625 412.15625 L 386.46875 412.8125 L 386.46875 415.40625 L 384.4375 415.75 L 384.125 419.34375 L 372.96875 419.34375 L 372.625 415.75 L 366.5625 416.375 L 366.875 413.78125 L 364.53125 413.125 L 364.53125 415.75 L 359.46875 416.0625 L 359.46875 413.125 L 357.75 413.46875 L 357.75 415.40625 L 355.90625 415.5625 L 355.65625 406 z M 682.5625 410.65625 L 682.75 416.90625 L 675.8125 418.53125 L 675.96875 415.90625 L 672.78125 416.0625 L 673.125 413.59375 L 682.5625 410.65625 z M 558.65625 424.71875 L 558.90625 430.96875 L 549.6875 431.1875 L 549.5625 424.8125 L 558.65625 424.71875 z M 547.1875 424.8125 L 547.1875 431.3125 L 538.8125 431.40625 L 538.8125 425.625 L 547.1875 424.8125 z M 561.25 424.8125 L 570.125 425.15625 L 570.25 430.625 L 561.375 430.71875 L 561.25 424.8125 z M 572.125 424.9375 L 579.25 425.15625 L 579.71875 429.8125 L 572.375 430.28125 L 572.125 424.9375 z M 326.40625 428.09375 L 347.5 429.0625 L 342.78125 432.46875 L 328.09375 431.65625 L 326.40625 428.09375 z M 356.1875 428.90625 L 358.53125 428.90625 L 360.1875 434.25 L 355.34375 434.40625 L 356.1875 428.90625 z M 354.6875 429.0625 L 353.34375 434.0625 L 346.5 434.0625 L 354.6875 429.0625 z M 359.84375 429.25 L 369.5625 434.5625 L 361.84375 434.40625 L 359.84375 429.25 z M 369.0625 430.84375 L 396.46875 432.46875 L 396.46875 435.40625 L 373.90625 434.0625 L 369.0625 430.84375 z M 363.53125 435.875 L 368.71875 436.03125 L 368.71875 443.3125 L 363.875 443.3125 L 363.53125 435.875 z M 347.375 436.1875 L 353 436.34375 L 353.5 442.84375 L 348 442.84375 L 347.375 436.1875 z M 360.03125 436.375 L 360.34375 442.96875 L 356.34375 443.3125 L 355.96875 436.46875 L 360.03125 436.375 z M 648.5625 445.5625 L 648.65625 452.90625 C 648.65625 452.90625 633.46875 455.46273 633.46875 455 C 633.46875 454.53727 633.625 447.65625 633.625 447.65625 L 648.5625 445.5625 z M 622.15625 449.5 L 622.28125 456.375 L 605.96875 457.96875 L 605.96875 451.5625 L 622.15625 449.5 z M 594 452.375 L 593.90625 458.65625 L 580.3125 459.34375 L 580.0625 452.71875 L 594 452.375 z M 567.40625 453.28125 L 567.28125 459.90625 L 554.15625 460.5 L 554.28125 453.625 L 567.40625 453.28125 z M 430.25 453.96875 L 430.375 460.375 L 424.46875 460.59375 L 424.6875 454.09375 L 430.25 453.96875 z M 443.5 454.3125 L 443.625 460.71875 L 437.71875 460.9375 L 437.9375 454.4375 L 443.5 454.3125 z M 526.96875 454.4375 L 538.90625 454.4375 L 538.8125 460.9375 L 526.84375 461.40625 L 526.96875 454.4375 z M 509.15625 454.625 L 509.28125 461.59375 L 497.84375 461.78125 L 497.84375 454.84375 L 509.15625 454.625 z M 454.84375 454.875 L 454.96875 461.28125 L 449.0625 461.53125 L 449.28125 455 L 454.84375 454.875 z M 466.1875 454.875 L 466.3125 461.28125 L 460.40625 461.53125 L 460.65625 455 L 466.1875 454.875 z "
         transform="translate(-299.81328,149.87578)"
         id="path5231" />
    </g>
    <image
       xlink:href="file:///C:/Users/Nathan/Desktop/inkscape_pasted_image_20110114_110841.png"
       width="251"
       height="251"
       id="image2965"
       x="598.57733"
       y="1328.4989" />
  </g>
</svg>
